<svg width="138" height="20" viewBox="0 0 138 20" fill="none" xmlns="http://www.w3.org/2000/svg">
<rect y="10" width="138" height="2" rx="1" fill="url(#paint0_linear_961_248)"/>
<circle cx="69.5" cy="9.5" r="6.5" fill="white"/>
<path d="M77.7603 9.99967L78.8656 8.08943C78.9985 7.85961 79.0346 7.58643 78.9661 7.32997C78.8975 7.07351 78.73 6.85477 78.5002 6.72183L76.588 5.61654V3.41396C76.588 3.14844 76.4825 2.89379 76.2947 2.70603C76.107 2.51827 75.8523 2.41279 75.5868 2.41279H73.3852L72.2809 0.501559C72.1476 0.272207 71.9292 0.1046 71.6732 0.0350134C71.5462 0.00058908 71.4137 -0.0082874 71.2832 0.00889848C71.1528 0.0260844 71.0271 0.0689909 70.9133 0.135131L69.0011 1.24042L67.0888 0.134129C66.8589 0.00137178 66.5856 -0.0346049 66.3292 0.0341133C66.0727 0.102832 65.854 0.270616 65.7213 0.500558L64.616 2.41279H62.4144C62.1489 2.41279 61.8942 2.51827 61.7064 2.70603C61.5187 2.89379 61.4132 3.14844 61.4132 3.41396V5.61554L59.501 6.72083C59.3869 6.78646 59.2869 6.87399 59.2067 6.97839C59.1265 7.0828 59.0678 7.20201 59.0338 7.32918C58.9999 7.45636 58.9914 7.58899 59.0088 7.71946C59.0263 7.84993 59.0694 7.97566 59.1355 8.08943L60.2408 9.99967L59.1355 11.9099C59.0034 12.1399 58.9675 12.4129 59.0358 12.6693C59.1041 12.9257 59.2709 13.1446 59.5 13.2785L61.4122 14.3838V16.5854C61.4122 16.8509 61.5177 17.1055 61.7054 17.2933C61.8932 17.4811 62.1479 17.5865 62.4134 17.5865H64.616L65.7213 19.4988C65.8099 19.6503 65.9364 19.7761 66.0885 19.8639C66.2405 19.9517 66.4127 19.9984 66.5883 19.9994C66.7625 19.9994 66.9357 19.9533 67.0899 19.8642L69.0001 18.7589L70.9123 19.8642C71.1422 19.9968 71.4153 20.0328 71.6717 19.9642C71.9281 19.8957 72.1468 19.7283 72.2799 19.4988L73.3842 17.5865H75.5858C75.8513 17.5865 76.106 17.4811 76.2937 17.2933C76.4815 17.1055 76.587 16.8509 76.587 16.5854V14.3838L78.4992 13.2785C78.6131 13.2127 78.7129 13.125 78.7929 13.0206C78.873 12.9162 78.9316 12.797 78.9655 12.6699C78.9995 12.5428 79.008 12.4103 78.9907 12.2799C78.9734 12.1495 78.9306 12.0237 78.8646 11.9099L77.7603 9.99967ZM66.4972 4.9838C66.8956 4.98393 67.2776 5.14233 67.5593 5.42416C67.8409 5.70598 67.999 6.08813 67.9989 6.48656C67.9988 6.88498 67.8404 7.26703 67.5586 7.54867C67.2767 7.8303 66.8946 7.98845 66.4962 7.98831C66.0977 7.98818 65.7157 7.82978 65.434 7.54796C65.1524 7.26614 64.9943 6.88398 64.9944 6.48556C64.9945 6.08713 65.1529 5.70508 65.4348 5.42345C65.7166 5.14181 66.0987 4.98367 66.4972 4.9838ZM66.7975 14.595L65.1956 13.3946L71.2027 5.38527L72.8045 6.58567L66.7975 14.595ZM71.503 14.9955C71.3057 14.9954 71.1104 14.9565 70.9282 14.881C70.7459 14.8054 70.5804 14.6947 70.4409 14.5552C70.3015 14.4156 70.1909 14.25 70.1154 14.0677C70.04 13.8854 70.0012 13.69 70.0013 13.4928C70.0013 13.2955 70.0402 13.1001 70.1158 12.9179C70.1914 12.7357 70.3021 12.5701 70.4416 12.4306C70.5812 12.2912 70.7468 12.1806 70.9291 12.1052C71.1114 12.0297 71.3067 11.9909 71.504 11.991C71.9024 11.9911 72.2845 12.1495 72.5661 12.4313C72.8478 12.7132 73.0059 13.0953 73.0058 13.4938C73.0056 13.8922 72.8472 14.2742 72.5654 14.5559C72.2836 14.8375 71.9014 14.9956 71.503 14.9955Z" fill="#3B5998"/>
<defs>
<linearGradient id="paint0_linear_961_248" x1="140" y1="10" x2="0" y2="10" gradientUnits="userSpaceOnUse">
<stop stop-color="#3B5998" stop-opacity="0.05"/>
<stop offset="0.526786" stop-color="#3B5998" stop-opacity="0.6"/>
<stop offset="1" stop-color="#3B5998" stop-opacity="0.05"/>
</linearGradient>
</defs>
</svg>
