<svg width="22" height="22" viewBox="0 0 22 22" fill="none" xmlns="http://www.w3.org/2000/svg">
<path d="M20.2792 13.6774C20.2749 12.273 19.9532 10.8877 19.3384 9.625H20.0151C20.1784 9.62497 20.3395 9.58613 20.4849 9.51167C20.6303 9.43721 20.7559 9.32927 20.8515 9.19673C20.947 9.0642 21.0097 8.91086 21.0343 8.74936C21.059 8.58785 21.0449 8.42281 20.9933 8.26781L20.764 7.58031C20.6958 7.37485 20.5645 7.19611 20.3889 7.0695C20.2133 6.94288 20.0023 6.87483 19.7858 6.875H17.5312V6.25934C17.5313 6.19986 17.5159 6.1414 17.4865 6.08967C17.4571 6.03794 17.4148 5.99473 17.3637 5.96427L16.743 5.59333C16.8086 5.45692 16.843 5.30762 16.8438 5.15625C16.8438 4.95229 16.7833 4.75291 16.67 4.58332C16.5566 4.41373 16.3956 4.28155 16.2071 4.2035C16.0187 4.12545 15.8114 4.10502 15.6113 4.14482C15.4113 4.18461 15.2275 4.28282 15.0833 4.42705C14.9391 4.57127 14.8409 4.75502 14.8011 4.95506C14.7613 5.15511 14.7817 5.36246 14.8597 5.55089C14.9378 5.73933 15.07 5.90039 15.2396 6.0137C15.4092 6.12702 15.6085 6.1875 15.8125 6.1875C15.9597 6.187 16.105 6.15467 16.2386 6.09273L16.8438 6.45439V8.9375H15.8125C15.7213 8.9375 15.6339 8.97372 15.5694 9.03818C15.505 9.10265 15.4688 9.19008 15.4688 9.28125C15.4688 9.37242 15.505 9.45985 15.5694 9.52432C15.6339 9.58878 15.7213 9.625 15.8125 9.625H17.1875V11.1371C17.1871 11.6648 17.0522 12.1836 16.7954 12.6446L16.2504 13.6213C15.8923 13.8394 15.5725 14.1152 15.3042 14.4375H12.7188C12.4453 14.4372 12.1832 14.3285 11.9899 14.1351C11.7965 13.9418 11.6878 13.6797 11.6875 13.4063V12.7188C11.6871 12.2737 11.5132 11.8463 11.2028 11.5273C11.3927 11.409 11.5388 11.232 11.6191 11.0231C11.6994 10.8142 11.7093 10.5849 11.6476 10.3699C11.5858 10.1548 11.4556 9.96576 11.2767 9.83135C11.0978 9.69694 10.88 9.6245 10.6562 9.625H3.09375C2.82034 9.6253 2.55821 9.73405 2.36488 9.92738C2.17155 10.1207 2.0628 10.3828 2.0625 10.6563C2.06352 10.8929 2.14671 11.1218 2.29783 11.3039C1.61663 11.5951 1.03585 12.0799 0.627411 12.698C0.218974 13.3161 0.000829936 14.0404 0 14.7813L0 16.8438C0 16.9349 0.0362164 17.0224 0.100682 17.0868C0.165148 17.1513 0.252582 17.1875 0.34375 17.1875H1.4025C1.48453 17.7599 1.77023 18.2836 2.20717 18.6623C2.64411 19.0411 3.20298 19.2497 3.78125 19.2497C4.35952 19.2497 4.91839 19.0411 5.35533 18.6623C5.79227 18.2836 6.07797 17.7599 6.16 17.1875H15.84C15.922 17.7599 16.2077 18.2836 16.6447 18.6623C17.0816 19.0411 17.6405 19.2497 18.2188 19.2497C18.797 19.2497 19.3559 19.0411 19.7928 18.6623C20.2298 18.2836 20.5155 17.7599 20.5975 17.1875H21.6562C21.7474 17.1875 21.8349 17.1513 21.8993 17.0868C21.9638 17.0224 22 16.9349 22 16.8438C21.9995 16.2144 21.8419 15.5952 21.5414 15.0422C21.2409 14.4893 20.807 14.0202 20.2792 13.6774ZM15.8125 5.5C15.7445 5.5 15.6781 5.47984 15.6215 5.44207C15.565 5.4043 15.5209 5.35061 15.4949 5.2878C15.4689 5.22499 15.4621 5.15587 15.4754 5.08919C15.4886 5.02251 15.5214 4.96126 15.5694 4.91318C15.6175 4.86511 15.6788 4.83237 15.7454 4.81911C15.8121 4.80584 15.8812 4.81265 15.944 4.83867C16.0069 4.86468 16.0605 4.90874 16.0983 4.96527C16.1361 5.0218 16.1562 5.08826 16.1562 5.15625C16.1562 5.24739 16.1199 5.33478 16.0555 5.39923C15.991 5.46368 15.9036 5.49992 15.8125 5.5ZM17.5312 7.5625H19.7858C19.8579 7.56243 19.9282 7.5851 19.9867 7.62729C20.0453 7.66947 20.089 7.72903 20.1117 7.79749L20.341 8.48533C20.3582 8.53698 20.363 8.59198 20.3548 8.64581C20.3466 8.69963 20.3257 8.75074 20.2938 8.7949C20.262 8.83907 20.2201 8.87504 20.1716 8.89983C20.1232 8.92462 20.0695 8.93753 20.0151 8.9375H17.5312V7.5625ZM17.3956 12.9796C17.7095 12.4162 17.8745 11.7821 17.875 11.1371V9.625H18.5703C19.183 10.7642 19.5286 12.0279 19.581 13.3203C18.8484 13.0312 18.0425 12.9838 17.2811 13.1849L17.3956 12.9796ZM3.09375 10.3125H10.6562C10.7474 10.3125 10.8349 10.3487 10.8993 10.4132C10.9638 10.4776 11 10.5651 11 10.6563C11 10.7474 10.9638 10.8349 10.8993 10.8993C10.8349 10.9638 10.7474 11 10.6562 11H3.09375C3.00258 11 2.91515 10.9638 2.85068 10.8993C2.78622 10.8349 2.75 10.7474 2.75 10.6563C2.75 10.5651 2.78622 10.4776 2.85068 10.4132C2.91515 10.3487 3.00258 10.3125 3.09375 10.3125ZM3.78125 18.5625C3.38523 18.562 3.00151 18.4249 2.69476 18.1744C2.38801 17.924 2.17698 17.5754 2.09725 17.1875H5.46525C5.38552 17.5754 5.17449 17.924 4.86774 18.1744C4.56099 18.4249 4.17727 18.562 3.78125 18.5625ZM0.707781 16.5C0.792018 15.7438 1.15209 15.0452 1.71913 14.5378C2.28617 14.0304 3.02035 13.7499 3.78125 13.7499C4.54215 13.7499 5.27633 14.0304 5.84337 14.5378C6.41041 15.0452 6.77048 15.7438 6.85472 16.5H0.707781ZM14.4549 16.5H7.54507C7.47593 15.7291 7.17147 14.9981 6.67296 14.406C6.17444 13.8139 5.50597 13.3894 4.75811 13.19C4.01025 12.9905 3.21915 13.0258 2.49201 13.291C1.76487 13.5562 1.13684 14.0386 0.693 14.6727C0.721449 13.8722 1.05912 13.1139 1.63504 12.5572C2.21095 12.0005 2.98026 11.6888 3.78125 11.6875H9.96875C10.2422 11.6878 10.5043 11.7965 10.6976 11.9899C10.891 12.1832 10.9997 12.4453 11 12.7188V13.4063C11.0005 13.8619 11.1818 14.2988 11.504 14.621C11.8262 14.9432 12.2631 15.1245 12.7188 15.125H14.8549C14.6344 15.5534 14.4986 16.0202 14.4549 16.5ZM18.2188 18.5625C17.8227 18.562 17.439 18.4249 17.1323 18.1744C16.8255 17.924 16.6145 17.5754 16.5348 17.1875H19.9027C19.823 17.5754 19.612 17.924 19.3052 18.1744C18.9985 18.4249 18.6148 18.562 18.2188 18.5625ZM15.1441 16.5C15.2287 15.7437 15.589 15.0451 16.1562 14.5377C16.7234 14.0304 17.4577 13.7499 18.2188 13.7499C18.9798 13.7499 19.7141 14.0304 20.2813 14.5377C20.8485 15.0451 21.2088 15.7437 21.2934 16.5H15.1441ZM3.09375 8.9375H10.6562C10.7474 8.9375 10.8349 8.90128 10.8993 8.83682C10.9638 8.77235 11 8.68492 11 8.59375V7.21875C11 7.12758 10.9638 7.04015 10.8993 6.97568C10.8349 6.91122 10.7474 6.875 10.6562 6.875H3.09375C3.00258 6.875 2.91515 6.91122 2.85068 6.97568C2.78622 7.04015 2.75 7.12758 2.75 7.21875V8.59375C2.75 8.68492 2.78622 8.77235 2.85068 8.83682C2.91515 8.90128 3.00258 8.9375 3.09375 8.9375ZM3.4375 7.5625H10.3125V8.25H3.4375V7.5625ZM4.125 6.1875H9.625C9.71617 6.1875 9.8036 6.15128 9.86807 6.08682C9.93253 6.02235 9.96875 5.93492 9.96875 5.84375C9.96875 5.75258 9.93253 5.66515 9.86807 5.60068C9.8036 5.53622 9.71617 5.5 9.625 5.5H9.60094C9.52382 4.89515 9.24804 4.33302 8.81689 3.90186C8.38573 3.47071 7.8236 3.19493 7.21875 3.11781V3.09375C7.21875 3.00258 7.18253 2.91515 7.11807 2.85068C7.0536 2.78622 6.96617 2.75 6.875 2.75C6.78383 2.75 6.6964 2.78622 6.63193 2.85068C6.56747 2.91515 6.53125 3.00258 6.53125 3.09375V3.11781C5.9264 3.19493 5.36427 3.47071 4.93311 3.90186C4.50196 4.33302 4.22618 4.89515 4.14906 5.5H4.125C4.03383 5.5 3.9464 5.53622 3.88193 5.60068C3.81747 5.66515 3.78125 5.75258 3.78125 5.84375C3.78125 5.93492 3.81747 6.02235 3.88193 6.08682C3.9464 6.15128 4.03383 6.1875 4.125 6.1875ZM6.875 3.78125C7.36197 3.78206 7.83296 3.95501 8.20473 4.26954C8.5765 4.58406 8.82509 5.0199 8.90656 5.5H4.84344C4.92491 5.0199 5.1735 4.58406 5.54527 4.26954C5.91704 3.95501 6.38803 3.78206 6.875 3.78125Z" fill="#4E5B5F"/>
</svg>
