<svg width="20" height="20" viewBox="0 0 20 20" fill="none" xmlns="http://www.w3.org/2000/svg">
<path d="M20 17.0287H0V17.6435H20V17.0287Z" fill="#4E5B5F"/>
<path d="M0.942627 15.1844V16.7418H1.55739V15.7992H18.4426V16.7418H19.0574V15.1844H0.942627Z" fill="#4E5B5F"/>
<path d="M9.05737 2.35657V2.97133H9.67214V3.25821H10.2869V2.97133H10.9426V2.35657H9.05737Z" fill="#4E5B5F"/>
<path d="M19.0574 13.5861V13.2787C19.0574 8.37223 15.1565 4.36352 10.2869 4.21141V3.58606H9.67212V4.21297C4.82161 4.38625 0.942627 8.38602 0.942627 13.2787V13.5861H9.67212V14.2418H8.11473V14.8566H11.8852V14.2418H10.2869V13.5861H19.0574ZM1.54802 12.9713C1.71013 8.44946 5.43927 4.82118 10 4.82118C14.5607 4.82118 18.2899 8.44946 18.452 12.9713H1.54802V12.9713Z" fill="#4E5B5F"/>
<path d="M7.39034 6.66406C5.87964 7.72961 4.81468 9.38488 4.46851 11.2055L5.07245 11.3203C5.38913 9.655 6.36311 8.14094 7.74472 7.16645L7.39034 6.66406Z" fill="#4E5B5F"/>
<path d="M10.3279 16.127H9.67215V16.7418H10.3279V16.127Z" fill="#4E5B5F"/>
<path d="M11.2705 16.127H10.6148V16.7418H11.2705V16.127Z" fill="#4E5B5F"/>
<path d="M9.38523 16.127H8.72949V16.7418H9.38523V16.127Z" fill="#4E5B5F"/>
</svg>
