<svg width="26" height="26" viewBox="0 0 26 26" fill="none" xmlns="http://www.w3.org/2000/svg">
<path d="M18.694 5.68882H15.08V5.25982C15.08 5.05295 14.9978 4.85456 14.8515 4.70828C14.7053 4.562 14.5069 4.47982 14.3 4.47982H14.2168C14.159 4.21491 14.0124 3.97773 13.8012 3.80766C13.59 3.63759 13.327 3.54486 13.0559 3.54486C12.7848 3.54486 12.5218 3.63759 12.3106 3.80766C12.0994 3.97773 11.9528 4.21491 11.895 4.47982H11.7C11.4931 4.47982 11.2947 4.562 11.1485 4.70828C11.0022 4.85456 10.92 5.05295 10.92 5.25982V5.68882H7.306C7.09913 5.68882 6.90074 5.771 6.75446 5.91728C6.60818 6.06356 6.526 6.26195 6.526 6.46882V21.6736C6.526 21.8805 6.60818 22.0789 6.75446 22.2252C6.90074 22.3714 7.09913 22.4536 7.306 22.4536H18.694C18.9009 22.4536 19.0993 22.3714 19.2455 22.2252C19.3918 22.0789 19.474 21.8805 19.474 21.6736V6.46622C19.4733 6.2598 19.3908 6.06207 19.2446 5.91636C19.0984 5.77064 18.9004 5.68882 18.694 5.68882ZM13.0468 4.06382C13.1802 4.0642 13.3105 4.10419 13.4211 4.17872C13.5317 4.25324 13.6177 4.35895 13.6682 4.48242H12.4228C12.474 4.35894 12.5606 4.25334 12.6716 4.17887C12.7826 4.1044 12.9131 4.06438 13.0468 4.06382ZM11.44 5.25982C11.44 5.19086 11.4674 5.12473 11.5162 5.07597C11.5649 5.02721 11.631 4.99982 11.7 4.99982H14.3C14.369 4.99982 14.4351 5.02721 14.4839 5.07597C14.5326 5.12473 14.56 5.19086 14.56 5.25982V6.63002C14.56 6.69898 14.5326 6.76511 14.4839 6.81387C14.4351 6.86263 14.369 6.89002 14.3 6.89002H11.7C11.631 6.89002 11.5649 6.86263 11.5162 6.81387C11.4674 6.76511 11.44 6.69898 11.44 6.63002V5.25982ZM18.9566 21.6736C18.9566 21.7426 18.9292 21.8087 18.8805 21.8575C18.8317 21.9062 18.7656 21.9336 18.6966 21.9336H7.306C7.23704 21.9336 7.17091 21.9062 7.12215 21.8575C7.07339 21.8087 7.046 21.7426 7.046 21.6736V6.46622C7.046 6.39726 7.07339 6.33113 7.12215 6.28237C7.17091 6.23361 7.23704 6.20622 7.306 6.20622H10.933V6.63002C10.933 6.83689 11.0152 7.03528 11.1615 7.18156C11.3077 7.32784 11.5061 7.41002 11.713 7.41002H14.3C14.5069 7.41002 14.7053 7.32784 14.8515 7.18156C14.9978 7.03528 15.08 6.83689 15.08 6.63002V6.20362H18.72C18.789 6.20362 18.8551 6.23101 18.9039 6.27977C18.9526 6.32853 18.98 6.39466 18.98 6.46362L18.9566 21.6736Z" fill="#4E5B5F"/>
<path d="M9.2352 8.90503H8.84C8.68209 8.90503 8.53065 8.96776 8.41899 9.07942C8.30733 9.19108 8.2446 9.34252 8.2446 9.50043V9.88003C8.24321 9.95897 8.25761 10.0374 8.28694 10.1107C8.31627 10.184 8.35995 10.2507 8.41542 10.3069C8.47088 10.3631 8.537 10.4076 8.60991 10.4379C8.68282 10.4682 8.76105 10.4836 8.84 10.4832H9.2274C9.3069 10.4843 9.38581 10.4694 9.45947 10.4394C9.53313 10.4095 9.60004 10.3651 9.65626 10.3089C9.71248 10.2527 9.75688 10.1858 9.78682 10.1121C9.81676 10.0384 9.83165 9.95953 9.8306 9.88003V9.49003C9.82721 9.33414 9.76307 9.18574 9.65185 9.07647C9.54063 8.96719 9.39112 8.90567 9.2352 8.90503ZM9.3106 9.88003C9.31061 9.88981 9.30864 9.8995 9.30482 9.9085C9.301 9.91751 9.2954 9.92565 9.28837 9.93245C9.28133 9.93924 9.27299 9.94455 9.26386 9.94805C9.25472 9.95155 9.24498 9.95318 9.2352 9.95283H8.84C8.83022 9.95318 8.82047 9.95155 8.81134 9.94805C8.8022 9.94455 8.79387 9.93924 8.78683 9.93245C8.77979 9.92565 8.7742 9.91751 8.77038 9.9085C8.76656 9.8995 8.76459 9.88981 8.7646 9.88003V9.49003C8.7646 9.47003 8.77254 9.45085 8.78668 9.43671C8.80082 9.42257 8.82 9.41463 8.84 9.41463H9.2274C9.2474 9.41463 9.26657 9.42257 9.28071 9.43671C9.29485 9.45085 9.3028 9.47003 9.3028 9.49003L9.3106 9.88003Z" fill="#4E5B5F"/>
<path d="M17.4876 9.40161H10.6964C10.6236 9.40848 10.556 9.44227 10.5067 9.49636C10.4575 9.55046 10.4302 9.62097 10.4302 9.69411C10.4302 9.76725 10.4575 9.83776 10.5067 9.89186C10.556 9.94595 10.6236 9.97974 10.6964 9.98661H17.4876C17.5604 9.97974 17.6281 9.94595 17.6773 9.89186C17.7265 9.83776 17.7538 9.76725 17.7538 9.69411C17.7538 9.62097 17.7265 9.55046 17.6773 9.49636C17.6281 9.44227 17.5604 9.40848 17.4876 9.40161Z" fill="#4E5B5F"/>
<path d="M9.23523 11.2632H8.84003C8.76196 11.2628 8.6846 11.2779 8.61238 11.3076C8.54015 11.3372 8.4745 11.3808 8.41917 11.4359C8.36385 11.491 8.31995 11.5564 8.29 11.6285C8.26005 11.7006 8.24463 11.7779 8.24463 11.856V12.246C8.24463 12.4039 8.30736 12.5553 8.41902 12.667C8.53068 12.7787 8.68212 12.8414 8.84003 12.8414H9.22743C9.38513 12.8407 9.53617 12.7778 9.64769 12.6662C9.7592 12.5547 9.82214 12.4037 9.82283 12.246V11.856C9.82216 11.6999 9.7602 11.5503 9.6503 11.4394C9.54039 11.3285 9.39133 11.2652 9.23523 11.2632ZM9.31063 12.246C9.31063 12.266 9.30268 12.2852 9.28854 12.2993C9.2744 12.3134 9.25523 12.3214 9.23523 12.3214H8.84003C8.82003 12.3214 8.80085 12.3134 8.78671 12.2993C8.77257 12.2852 8.76463 12.266 8.76463 12.246V11.856C8.7653 11.8364 8.77354 11.8179 8.78761 11.8043C8.80168 11.7908 8.82047 11.7832 8.84003 11.7832H9.22743C9.24698 11.7832 9.26578 11.7908 9.27985 11.8043C9.29391 11.8179 9.30215 11.8364 9.30283 11.856L9.31063 12.246Z" fill="#4E5B5F"/>
<path d="M17.4876 11.7598H10.6964C10.6236 11.7667 10.556 11.8005 10.5067 11.8546C10.4575 11.9087 10.4302 11.9792 10.4302 12.0523C10.4302 12.1255 10.4575 12.196 10.5067 12.2501C10.556 12.3042 10.6236 12.338 10.6964 12.3448H17.4876C17.5604 12.338 17.6281 12.3042 17.6773 12.2501C17.7265 12.196 17.7538 12.1255 17.7538 12.0523C17.7538 11.9792 17.7265 11.9087 17.6773 11.8546C17.6281 11.8005 17.5604 11.7667 17.4876 11.7598Z" fill="#4E5B5F"/>
<path d="M9.23523 13.6474H8.84003C8.76196 13.6471 8.6846 13.6621 8.61238 13.6918C8.54015 13.7214 8.4745 13.765 8.41917 13.8201C8.36385 13.8752 8.31995 13.9407 8.29 14.0127C8.26005 14.0848 8.24463 14.1621 8.24463 14.2402V14.6302C8.24463 14.7083 8.26005 14.7856 8.29 14.8577C8.31995 14.9298 8.36385 14.9952 8.41917 15.0503C8.4745 15.1054 8.54015 15.149 8.61238 15.1786C8.6846 15.2083 8.76196 15.2233 8.84003 15.223H9.22743C9.38489 15.223 9.53594 15.1606 9.64752 15.0495C9.75911 14.9384 9.82214 14.7877 9.82283 14.6302V14.2402C9.82216 14.0841 9.7602 13.9345 9.6503 13.8236C9.54039 13.7127 9.39133 13.6494 9.23523 13.6474ZM9.31063 14.6302C9.31064 14.64 9.30867 14.6497 9.30485 14.6587C9.30103 14.6677 9.29543 14.6758 9.2884 14.6826C9.28136 14.6894 9.27302 14.6947 9.26389 14.6982C9.25475 14.7017 9.24501 14.7034 9.23523 14.703H8.84003C8.83025 14.7034 8.82051 14.7017 8.81137 14.6982C8.80224 14.6947 8.7939 14.6894 8.78686 14.6826C8.77982 14.6758 8.77423 14.6677 8.77041 14.6587C8.76659 14.6497 8.76462 14.64 8.76463 14.6302V14.2402C8.76462 14.2304 8.76659 14.2207 8.77041 14.2117C8.77423 14.2027 8.77982 14.1946 8.78686 14.1878C8.7939 14.181 8.80224 14.1757 8.81137 14.1722C8.82051 14.1687 8.83025 14.1671 8.84003 14.1674H9.22743C9.23721 14.1671 9.24695 14.1687 9.25609 14.1722C9.26522 14.1757 9.27356 14.181 9.2806 14.1878C9.28763 14.1946 9.29323 14.2027 9.29705 14.2117C9.30087 14.2207 9.30284 14.2304 9.30283 14.2402L9.31063 14.6302Z" fill="#4E5B5F"/>
<path d="M17.4876 14.144H10.6964C10.6236 14.1509 10.556 14.1846 10.5067 14.2387C10.4575 14.2928 10.4302 14.3633 10.4302 14.4365C10.4302 14.5096 10.4575 14.5801 10.5067 14.6342C10.556 14.6883 10.6236 14.7221 10.6964 14.729H17.4876C17.5604 14.7221 17.6281 14.6883 17.6773 14.6342C17.7265 14.5801 17.7538 14.5096 17.7538 14.4365C17.7538 14.3633 17.7265 14.2928 17.6773 14.2387C17.6281 14.1846 17.5604 14.1509 17.4876 14.144Z" fill="#4E5B5F"/>
<path d="M9.23523 16.003H8.84003C8.76196 16.0027 8.6846 16.0177 8.61238 16.0474C8.54015 16.077 8.4745 16.1206 8.41917 16.1757C8.36385 16.2308 8.31995 16.2962 8.29 16.3683C8.26005 16.4404 8.24463 16.5177 8.24463 16.5958V16.9858C8.24463 17.064 8.26003 17.1414 8.28995 17.2136C8.31987 17.2859 8.36373 17.3515 8.41902 17.4068C8.47431 17.4621 8.53994 17.506 8.61218 17.5359C8.68442 17.5658 8.76184 17.5812 8.84003 17.5812H9.22743C9.38513 17.5805 9.53617 17.5176 9.64769 17.4061C9.7592 17.2945 9.82214 17.1435 9.82283 16.9858V16.5958C9.82216 16.4397 9.7602 16.2901 9.6503 16.1792C9.54039 16.0683 9.39133 16.005 9.23523 16.003ZM9.31063 16.9858C9.31063 17.0058 9.30268 17.025 9.28854 17.0391C9.2744 17.0533 9.25523 17.0612 9.23523 17.0612H8.84003C8.82003 17.0612 8.80085 17.0533 8.78671 17.0391C8.77257 17.025 8.76463 17.0058 8.76463 16.9858V16.5958C8.7653 16.5763 8.77354 16.5577 8.78761 16.5442C8.80168 16.5306 8.82047 16.523 8.84003 16.523H9.22743C9.24698 16.523 9.26578 16.5306 9.27985 16.5442C9.29391 16.5577 9.30215 16.5763 9.30283 16.5958L9.31063 16.9858Z" fill="#4E5B5F"/>
<path d="M17.4876 16.4996H10.6964C10.6236 16.5064 10.556 16.5402 10.5067 16.5943C10.4575 16.6484 10.4302 16.7189 10.4302 16.7921C10.4302 16.8652 10.4575 16.9357 10.5067 16.9898C10.556 17.0439 10.6236 17.0777 10.6964 17.0846H17.4876C17.5604 17.0777 17.6281 17.0439 17.6773 16.9898C17.7265 16.9357 17.7538 16.8652 17.7538 16.7921C17.7538 16.7189 17.7265 16.6484 17.6773 16.5943C17.6281 16.5402 17.5604 16.5064 17.4876 16.4996Z" fill="#4E5B5F"/>
<path d="M9.23523 18.3586H8.84003C8.76184 18.3586 8.68442 18.374 8.61218 18.4039C8.53994 18.4338 8.47431 18.4777 8.41902 18.533C8.36373 18.5883 8.31987 18.6539 8.28995 18.7261C8.26003 18.7984 8.24463 18.8758 8.24463 18.954V19.3414C8.24463 19.4993 8.30736 19.6507 8.41902 19.7624C8.53068 19.8741 8.68212 19.9368 8.84003 19.9368H9.22743C9.38513 19.9361 9.53617 19.8731 9.64769 19.7616C9.7592 19.6501 9.82214 19.4991 9.82283 19.3414V18.954C9.82217 18.7976 9.7603 18.6477 9.65046 18.5364C9.54063 18.4251 9.39157 18.3613 9.23523 18.3586ZM9.31063 19.3414C9.31063 19.3614 9.30268 19.3806 9.28854 19.3947C9.2744 19.4088 9.25523 19.4168 9.23523 19.4168H8.84003C8.82003 19.4168 8.80085 19.4088 8.78671 19.3947C8.77257 19.3806 8.76463 19.3614 8.76463 19.3414V18.954C8.76463 18.934 8.77257 18.9148 8.78671 18.9007C8.80085 18.8865 8.82003 18.8786 8.84003 18.8786H9.22743C9.24743 18.8786 9.2666 18.8865 9.28075 18.9007C9.29489 18.9148 9.30283 18.934 9.30283 18.954L9.31063 19.3414Z" fill="#4E5B5F"/>
<path d="M17.4876 18.8552H10.6964C10.6236 18.8621 10.556 18.8959 10.5067 18.95C10.4575 19.0041 10.4302 19.0746 10.4302 19.1477C10.4302 19.2209 10.4575 19.2914 10.5067 19.3455C10.556 19.3996 10.6236 19.4334 10.6964 19.4402H17.4876C17.5604 19.4334 17.6281 19.3996 17.6773 19.3455C17.7265 19.2914 17.7538 19.2209 17.7538 19.1477C17.7538 19.0746 17.7265 19.0041 17.6773 18.95C17.6281 18.8959 17.5604 18.8621 17.4876 18.8552Z" fill="#4E5B5F"/>
</svg>
