<svg width="19" height="19" viewBox="0 0 19 19" fill="none" xmlns="http://www.w3.org/2000/svg">
<path d="M9.55003 9.05664C11.7671 9.05664 13.5645 7.2531 13.5645 5.02832C13.5645 2.80354 11.7671 1 9.55003 1C7.33291 1 5.53558 2.80354 5.53558 5.02832C5.53558 7.2531 7.33291 9.05664 9.55003 9.05664Z" stroke="#4E5B5F" stroke-width="0.9" stroke-linecap="round" stroke-linejoin="round"/>
<path d="M18.0741 18.0933H1.02603C1.00869 17.8759 1 17.6579 1 17.4398C1 15.2164 1.90081 13.0841 3.50425 11.512C5.10769 9.93986 7.28242 9.05664 9.55003 9.05664C10.6728 9.05664 11.7847 9.27347 12.822 9.69477C13.8593 10.1161 14.8019 10.7336 15.5958 11.512C16.3898 12.2904 17.0196 13.2146 17.4492 14.2317C17.8789 15.2488 18.1001 16.3389 18.1001 17.4398C18.1001 17.6579 18.0914 17.876 18.074 18.0934" stroke="#4E5B5F" stroke-width="0.9" stroke-linecap="round" stroke-linejoin="round"/>
</svg>
