<svg width="12" height="12" viewBox="0 0 12 12" fill="none" xmlns="http://www.w3.org/2000/svg">
<path d="M11.1036 5.82632L11.7476 4.71332C11.825 4.57941 11.846 4.42024 11.8061 4.27082C11.7662 4.12139 11.6685 3.99394 11.5347 3.91648L10.4205 3.27248V1.98915C10.4205 1.83444 10.359 1.68607 10.2496 1.57667C10.1402 1.46728 9.99187 1.40582 9.83716 1.40582H8.55441L7.911 0.292234C7.83329 0.158602 7.70608 0.0609454 7.55691 0.0204006C7.48292 0.000343228 7.40569 -0.00482866 7.32969 0.00518471C7.25369 0.0151981 7.18043 0.0401976 7.11416 0.078734L6 0.722734L4.88583 0.0781506C4.75185 0.00079927 4.59263 -0.0201626 4.4432 0.0198762C4.29376 0.0599149 4.16635 0.157675 4.089 0.291651L3.445 1.40582H2.16225C2.00754 1.40582 1.85916 1.46728 1.74977 1.57667C1.64037 1.68607 1.57891 1.83444 1.57891 1.98915V3.2719L0.464746 3.9159C0.398265 3.95414 0.339995 4.00514 0.293284 4.06597C0.246573 4.1268 0.212341 4.19626 0.192556 4.27036C0.172771 4.34446 0.167823 4.42173 0.177995 4.49775C0.188167 4.57377 0.213259 4.64703 0.251829 4.71332L0.895829 5.82632L0.251829 6.93932C0.174823 7.07335 0.15393 7.23239 0.193705 7.38177C0.23348 7.53115 0.330699 7.65874 0.464163 7.73673L1.57833 8.38073V9.66348C1.57833 9.81819 1.63979 9.96657 1.74918 10.076C1.85858 10.1854 2.00695 10.2468 2.16166 10.2468H3.445L4.089 11.361C4.14064 11.4493 4.21438 11.5226 4.30295 11.5737C4.39152 11.6249 4.49189 11.6521 4.59416 11.6526C4.69566 11.6526 4.79658 11.6258 4.88641 11.5739L5.99941 10.9299L7.11358 11.5739C7.24752 11.6511 7.40664 11.6721 7.55602 11.6322C7.7054 11.5923 7.83285 11.4947 7.91041 11.361L8.55383 10.2468H9.83658C9.99129 10.2468 10.1397 10.1854 10.2491 10.076C10.3585 9.96657 10.4199 9.81819 10.4199 9.66348V8.38073L11.5341 7.73673C11.6004 7.69838 11.6586 7.64732 11.7052 7.58648C11.7519 7.52564 11.786 7.45621 11.8058 7.38215C11.8256 7.30809 11.8306 7.23087 11.8205 7.15488C11.8104 7.0789 11.7854 7.00565 11.747 6.93932L11.1036 5.82632ZM4.54108 2.90382C4.77322 2.90389 4.99582 2.99619 5.15992 3.16039C5.32401 3.32459 5.41616 3.54726 5.41608 3.7794C5.416 4.01154 5.32371 4.23415 5.15951 4.39824C4.9953 4.56233 4.77264 4.65448 4.5405 4.6544C4.30835 4.65432 4.08575 4.56203 3.92166 4.39783C3.75756 4.23362 3.66542 4.01096 3.6655 3.77882C3.66557 3.54667 3.75787 3.32407 3.92207 3.15998C4.08627 2.99588 4.30894 2.90374 4.54108 2.90382ZM4.71608 8.50382L3.78275 7.8044L7.28275 3.13773L8.21608 3.83715L4.71608 8.50382ZM7.45775 8.73715C7.3428 8.73711 7.22899 8.71443 7.12281 8.67041C7.01663 8.62639 6.92016 8.56188 6.83891 8.48058C6.75766 8.39927 6.69321 8.30276 6.64926 8.19655C6.60531 8.09034 6.58271 7.97651 6.58275 7.86157C6.58278 7.74662 6.60546 7.63281 6.64949 7.52663C6.69351 7.42045 6.75801 7.32398 6.83932 7.24273C6.92062 7.16148 7.01714 7.09703 7.12335 7.05308C7.22956 7.00913 7.34338 6.98653 7.45833 6.98657C7.69047 6.98664 7.91307 7.07894 8.07717 7.24314C8.24126 7.40734 8.33341 7.63001 8.33333 7.86215C8.33325 8.09429 8.24096 8.31689 8.07676 8.48099C7.91255 8.64508 7.68989 8.73723 7.45775 8.73715Z" fill="#3B5998"/>
</svg>
