<svg width="10" height="10" viewBox="0 0 10 10" fill="none" xmlns="http://www.w3.org/2000/svg">
<g clip-path="url(#clip0_55_424)">
<path d="M8.125 9.375C8.05451 9.37459 7.98623 9.35036 7.93125 9.30625L5.67188 7.5H1.25C1.00136 7.5 0.762903 7.40123 0.587087 7.22541C0.411272 7.0496 0.3125 6.81114 0.3125 6.5625V1.5625C0.3125 1.31386 0.411272 1.0754 0.587087 0.899587C0.762903 0.723772 1.00136 0.625 1.25 0.625H8.75C8.99864 0.625 9.2371 0.723772 9.41291 0.899587C9.58873 1.0754 9.6875 1.31386 9.6875 1.5625V6.5625C9.6875 6.81114 9.58873 7.0496 9.41291 7.22541C9.2371 7.40123 8.99864 7.5 8.75 7.5H8.4375V9.0625C8.43733 9.1214 8.42052 9.17906 8.38901 9.22882C8.35749 9.27858 8.31255 9.31842 8.25938 9.34375C8.21783 9.36504 8.17168 9.37577 8.125 9.375ZM1.25 1.25C1.16712 1.25 1.08763 1.28292 1.02903 1.34153C0.970424 1.40013 0.9375 1.47962 0.9375 1.5625V6.5625C0.9375 6.64538 0.970424 6.72487 1.02903 6.78347C1.08763 6.84208 1.16712 6.875 1.25 6.875H5.78125C5.85281 6.8747 5.92231 6.89897 5.97812 6.94375L7.8125 8.4125V7.1875C7.8125 7.10462 7.84542 7.02513 7.90403 6.96653C7.96263 6.90792 8.04212 6.875 8.125 6.875H8.75C8.83288 6.875 8.91237 6.84208 8.97097 6.78347C9.02958 6.72487 9.0625 6.64538 9.0625 6.5625V1.5625C9.0625 1.47962 9.02958 1.40013 8.97097 1.34153C8.91237 1.28292 8.83288 1.25 8.75 1.25H1.25Z" fill="#101820"/>
<path d="M5.3125 3.75H4.6875V4.375H5.3125V3.75Z" fill="#101820"/>
<path d="M3.125 3.75H2.5V4.375H3.125V3.75Z" fill="#101820"/>
<path d="M7.5 3.75H6.875V4.375H7.5V3.75Z" fill="#101820"/>
</g>
<defs>
<clipPath id="clip0_55_424">
<rect width="10" height="10" fill="white"/>
</clipPath>
</defs>
</svg>
