<svg width="24" height="24" viewBox="0 0 24 24" fill="none" xmlns="http://www.w3.org/2000/svg">
<rect width="24" height="24" rx="4" fill="#3B5998" fill-opacity="0.1"/>
<g clip-path="url(#clip0_55_378)">
<path d="M7.57198 6.30539L17.6462 16.3796C17.8374 16.5708 17.9448 16.8301 17.9448 17.1004C17.9448 17.3708 17.8374 17.63 17.6462 17.8212C17.455 18.0123 17.1958 18.1196 16.9255 18.1196C16.6551 18.1196 16.3959 18.0123 16.2047 17.8212L13.7437 15.3179C13.5827 15.1544 13.4923 14.9341 13.4922 14.7046V14.5534C13.4922 14.4375 13.4692 14.3227 13.4245 14.2158C13.3798 14.1089 13.3143 14.0119 13.2319 13.9305L12.9141 13.6371C12.8063 13.5375 12.6751 13.4667 12.5327 13.4312C12.3903 13.3956 12.2413 13.3965 12.0993 13.4336C11.8754 13.4921 11.6401 13.4909 11.4168 13.4304C11.1934 13.3698 10.9898 13.2518 10.8262 13.0883L8.49018 10.752C7.1044 9.36625 6.59444 7.27363 7.57198 6.30539Z" stroke="#3B5998" stroke-linejoin="round"/>
<path d="M16.9375 5.875L14.8252 7.9873C14.6627 8.14981 14.5337 8.34275 14.4457 8.5551C14.3578 8.76744 14.3125 8.99504 14.3125 9.22488V9.63121C14.3125 9.6887 14.3012 9.74563 14.2792 9.79874C14.2572 9.85185 14.2249 9.9001 14.1843 9.94074L13.875 10.25" stroke="#3B5998" stroke-linecap="round" stroke-linejoin="round"/>
<path d="M14.75 11.125L15.0593 10.8157C15.0999 10.7751 15.1481 10.7428 15.2013 10.7208C15.2544 10.6988 15.3113 10.6875 15.3688 10.6875H15.7751C16.005 10.6875 16.2326 10.6422 16.4449 10.5543C16.6573 10.4663 16.8502 10.3373 17.0127 10.1748L19.125 8.0625" stroke="#3B5998" stroke-linecap="round" stroke-linejoin="round"/>
<path d="M18.0312 6.96875L15.8438 9.15625" stroke="#3B5998" stroke-linecap="round" stroke-linejoin="round"/>
<path d="M11.4688 15.0625L8.74204 17.8045C8.53693 18.0096 8.25878 18.1248 7.96876 18.1248C7.67874 18.1248 7.40059 18.0096 7.19548 17.8045C6.99043 17.5994 6.87524 17.3213 6.87524 17.0312C6.87524 16.7412 6.99043 16.4631 7.19548 16.258L9.50001 13.9688" stroke="#3B5998" stroke-linecap="round" stroke-linejoin="round"/>
</g>
<defs>
<clipPath id="clip0_55_378">
<rect width="14" height="14" fill="white" transform="translate(6 5)"/>
</clipPath>
</defs>
</svg>
