<svg width="24" height="24" viewBox="0 0 24 24" fill="none" xmlns="http://www.w3.org/2000/svg">
<rect width="24" height="24" rx="4" fill="#3B5998" fill-opacity="0.1"/>
<g clip-path="url(#clip0_55_374)">
<path d="M12 18.5C11.9342 18.5004 11.869 18.4878 11.8081 18.4629C11.7471 18.438 11.6917 18.4013 11.645 18.355L8.11002 14.855C7.59965 14.348 7.19461 13.745 6.91821 13.0809C6.64181 12.4167 6.49951 11.7044 6.49951 10.985C6.49951 10.2656 6.64181 9.5533 6.91821 8.88912C7.19461 8.22494 7.59965 7.62199 8.11002 7.11499C9.14603 6.09148 10.5437 5.51752 12 5.51752C13.4564 5.51752 14.854 6.09148 15.89 7.11499C16.4004 7.62199 16.8054 8.22494 17.0818 8.88912C17.3582 9.5533 17.5005 10.2656 17.5005 10.985C17.5005 11.7044 17.3582 12.4167 17.0818 13.0809C16.8054 13.745 16.4004 14.348 15.89 14.855L12.355 18.355C12.3083 18.4013 12.2529 18.438 12.192 18.4629C12.1311 18.4878 12.0658 18.5004 12 18.5ZM12 6.49999C10.8066 6.49706 9.66098 6.96828 8.81502 7.80999C8.39838 8.22403 8.06773 8.71638 7.8421 9.2587C7.61647 9.80102 7.50031 10.3826 7.50031 10.97C7.50031 11.5574 7.61647 12.139 7.8421 12.6813C8.06773 13.2236 8.39838 13.7159 8.81502 14.13L12 17.295L15.185 14.13C15.6017 13.7159 15.9323 13.2236 16.1579 12.6813C16.3836 12.139 16.4997 11.5574 16.4997 10.97C16.4997 10.3826 16.3836 9.80102 16.1579 9.2587C15.9323 8.71638 15.6017 8.22403 15.185 7.80999C14.3391 6.96828 13.1934 6.49706 12 6.49999Z" fill="#3B5998"/>
<path d="M12 13.5C11.5055 13.5 11.0222 13.3534 10.6111 13.0787C10.2 12.804 9.87952 12.4135 9.6903 11.9567C9.50108 11.4999 9.45157 10.9972 9.54804 10.5123C9.6445 10.0273 9.8826 9.58187 10.2322 9.23223C10.5819 8.8826 11.0273 8.6445 11.5123 8.54804C11.9972 8.45157 12.4999 8.50108 12.9567 8.6903C13.4135 8.87952 13.804 9.19995 14.0787 9.61108C14.3534 10.0222 14.5 10.5055 14.5 11C14.5 11.663 14.2366 12.2989 13.7678 12.7678C13.2989 13.2366 12.663 13.5 12 13.5ZM12 9.5C11.7033 9.5 11.4133 9.58798 11.1666 9.7528C10.92 9.91762 10.7277 10.1519 10.6142 10.426C10.5007 10.7001 10.4709 11.0017 10.5288 11.2926C10.5867 11.5836 10.7296 11.8509 10.9393 12.0607C11.1491 12.2704 11.4164 12.4133 11.7074 12.4712C11.9983 12.5291 12.2999 12.4994 12.574 12.3858C12.8481 12.2723 13.0824 12.08 13.2472 11.8334C13.412 11.5867 13.5 11.2967 13.5 11C13.5 10.6022 13.342 10.2206 13.0607 9.93934C12.7794 9.65804 12.3978 9.5 12 9.5Z" fill="#3B5998"/>
</g>
<defs>
<clipPath id="clip0_55_374">
<rect width="16" height="16" fill="white" transform="translate(4 4)"/>
</clipPath>
</defs>
</svg>
