<svg width="24" height="24" viewBox="0 0 24 24" fill="none" xmlns="http://www.w3.org/2000/svg">
<rect width="24" height="24" rx="4" fill="#3B5998" fill-opacity="0.1"/>
<path d="M12 5.56955C8.45398 5.56955 5.56952 8.4544 5.56952 12.0002C5.56952 15.5461 8.45398 18.4305 12 18.4305C15.5458 18.4305 18.4304 15.5461 18.4304 12.0002C18.4304 8.4544 15.5458 5.56955 12 5.56955ZM12 17.4162C9.01343 17.4162 6.58381 14.9866 6.58381 12.0002C6.58381 9.01346 9.01343 6.58384 12 6.58384C14.9865 6.58384 17.4162 9.01346 17.4162 12.0002C17.4162 14.9866 14.9865 17.4162 12 17.4162Z" fill="#516CA4"/>
<path d="M10.9832 10.7399C10.9832 10.3331 11.5782 10.2636 12.0943 10.2636C12.5808 10.2636 13.2455 10.4916 13.8013 10.7797L13.9102 9.65841C13.6322 9.49951 12.9874 9.31093 12.3325 9.27152L12.4912 8.13031H11.4294L11.5884 9.27152C10.2191 9.40033 9.77252 10.1941 9.77252 10.859C9.77252 12.5358 12.8978 12.179 12.8978 13.2105C12.8978 13.5978 12.531 13.7364 11.8859 13.7364C11.0129 13.7364 10.3577 13.4291 10.0206 13.1114L9.85176 14.3716C10.1696 14.5602 10.8142 14.7289 11.5884 14.7687L11.4294 15.8701H12.4912L12.3325 14.7586C13.9399 14.6196 14.2276 13.7661 14.2276 13.2008C14.2276 11.2064 10.9832 11.7023 10.9832 10.7399Z" fill="#516CA4"/>
</svg>
